<svg version="1.2" xmlns="http://www.w3.org/2000/svg" viewBox="0 0 419 340" width="100%" height="100%">
	<style>
		.s0 { fill: #f45f90 } 
		.s1 { fill: currentColor } 
	</style>
	<path id="Preencher com Cor Sólida 2" class="s0" d="m242.5 75.87c-2.75 1.57-6.46 4.49-8.25 6.49-1.79 2-3.95 5.33-4.8 7.39-0.88 2.1-1.62 7.05-1.69 11.25-0.09 4.97 0.4 8.68 1.45 11 0.87 1.93 3.61 5.52 6.08 8 2.48 2.48 6.46 5.5 8.85 6.73 3.38 1.72 6.1 2.23 12.11 2.25 5.79 0.01 8.76-0.49 11.75-1.98 2.2-1.1 5.83-3.91 8.06-6.25 2.23-2.34 4.93-6.61 6-9.5 1.07-2.89 1.94-7.5 1.94-10.25 0-2.75-0.89-7.36-1.97-10.25-1.14-3.04-3.77-7.07-6.25-9.58-2.35-2.37-6.3-5.2-8.78-6.27-3.17-1.38-6.71-1.94-12-1.92-6.37 0.03-8.25 0.47-12.5 2.89z"/>
	<path id="Preencher com Cor Sólida 1" fill-rule="evenodd" class="s1" d="m214.5 25.61c52.71 0.07 77.38 0.45 80.5 1.23 2.48 0.62 6.89 2.6 9.82 4.39 2.92 1.8 6.97 5.09 9 7.31 2.02 2.23 4.26 4.93 4.96 6 0.7 1.08 1.49 2.75 1.75 3.71 0.26 0.96 0.92 1.75 1.47 1.75 0.55 0 1 1.13 1 2.5 0 1.38 0.45 2.73 1 3 0.61 0.31 1.08 9.14 1.22 22.75 0.12 12.24 0.1 27.2-0.29 44.25l-3.71 3.34c-3.35 3.01-4.16 3.29-8.22 2.81-3.27-0.39-5.32-1.37-10.5-6.69l-0.3-28.23c-0.17-16.44-0.7-28.65-1.26-29.23-0.54-0.55-0.97-1.79-0.96-2.75 0.01-0.96-1.89-3.69-4.23-6.05-2.99-3.03-5.66-4.66-9-5.5-3.47-0.88-24.08-1.2-147.75-1.2l-4.67 2.25c-2.58 1.24-6.29 4.09-8.25 6.35-2.1 2.39-4.11 6.13-4.85 9-0.99 3.82-1.18 21.18-0.86 78.9 0.36 62.56 0.65 74.54 1.91 77.5 0.81 1.92 3 4.99 4.85 6.82 1.85 1.83 5.06 4.19 7.12 5.25 3.54 1.82 6.25 1.93 48.25 1.93 43.67 0 44.51-0.04 45-2 0.27-1.1 0.95-2 1.5-2 0.55 0 0.89-1.11 0.75-2.46-0.17-1.64-5.03-7.27-14.75-17.05-10.18-10.24-14.95-14.4-16-13.93-0.82 0.37-3.07 1.12-5 1.67-1.93 0.55-5.75 1.2-8.5 1.45-2.87 0.25-5.43-0.02-6-0.64-0.55-0.59-2.01-1.07-3.25-1.06-1.24 0.01-3.68-0.77-5.42-1.73-1.75-0.96-5.13-3.66-7.5-6-2.38-2.34-4.94-5.49-5.68-7-0.75-1.51-1.87-5.56-2.5-9-0.84-4.53-0.86-7.56-0.08-11 0.59-2.61 1.78-6.1 2.64-7.75 0.86-1.65 3.19-4.72 5.18-6.83 1.98-2.11 4.96-4.57 6.61-5.47 1.65-0.89 4.57-2.2 6.5-2.9 1.93-0.7 6.2-1.28 9.5-1.3 3.3-0.02 6.45 0.37 7 0.86 0.55 0.49 2.57 1.17 4.5 1.5 3.24 0.56 3.98 0.15 10-5.52 3.58-3.38 10.22-9.78 23.02-22.34l3.75 4c2.07 2.2 5.03 4.9 9.43 8l-9.91 9.5c-5.45 5.23-12.47 11.86-21.29 20l0.74 6.75c0.41 3.71 0.71 7.2 0.66 7.75-0.04 0.55-0.37 3.7-1.38 13l30.48 30.39 8.58 0.3c7.53 0.27 9.18 0.68 13.5 3.36 2.71 1.67 6.5 5.14 8.42 7.69 1.92 2.56 4.06 6.47 4.75 8.7 0.69 2.24 1.25 5.64 1.25 7.56 0 1.92-0.51 4.74-1.14 6.25-0.63 1.51-1.72 4.1-2.42 5.75-0.7 1.65-2.66 4.46-4.36 6.25-1.69 1.79-4.99 4.45-7.33 5.91-3.76 2.35-5.22 2.65-12.75 2.6-5.01-0.04-9.53-0.6-11-1.38-1.38-0.73-4.19-2.8-6.25-4.6-2.06-1.81-4.31-3.31-5-3.34-0.69-0.03-21.27-0.02-45.75 0.03-36.18 0.07-45.81-0.2-51.5-1.43-3.85-0.83-9.25-2.61-12-3.95-2.75-1.35-7.25-4.91-10-7.91-2.75-3.01-5.56-6.19-6.25-7.08-0.69-0.88-1.25-2.27-1.25-3.1 0-0.83-0.34-1.67-0.75-1.87-0.41-0.2-1.54-2.67-2.5-5.5-1.61-4.73-1.75-11.68-1.73-88.38 0.02-76.34 0.17-83.64 1.75-88 0.95-2.62 2.07-4.76 2.48-4.75 0.41 0 0.75-0.68 0.75-1.5 0-0.82 0.44-2.06 0.98-2.75 0.54-0.69 3.13-3.65 5.75-6.58 3.19-3.56 6.92-6.35 11.27-8.43 4-1.92 8.81-3.33 12.5-3.68 3.3-0.31 40.2-0.51 82-0.45zm-35.34 133.1c-0.74 0.3-2.24 1.28-3.33 2.17-1.09 0.89-2.63 2.86-3.41 4.37-0.78 1.51-1.41 4.89-1.39 7.5 0.02 3.48 0.69 5.62 2.5 8 1.42 1.86 4.07 3.74 6.22 4.41 2.84 0.88 4.78 0.88 8 0 2.78-0.76 5.11-2.28 6.74-4.41 1.36-1.79 2.77-4.83 3.12-6.75 0.44-2.41 0.07-4.75-1.2-7.5-1.01-2.2-2.3-4.48-2.87-5.08-0.57-0.59-2.05-1.6-3.29-2.25-1.24-0.64-3.94-1.13-6-1.09-2.06 0.04-4.35 0.33-5.09 0.63zm134.59 4.29c1.24 0 3.49 0.48 5 1.07 1.51 0.59 3.65 2.05 4.75 3.23 1.94 2.09 2 3.54 2 93.2l-2.45 7c-1.35 3.85-3.99 9.25-5.86 12-1.88 2.75-10.68 12.34-19.55 21.32-8.88 8.97-17.38 16.96-18.89 17.75-1.51 0.79-4.55 1.43-6.75 1.43-3.33 0-4.67-0.67-8-4-2.7-2.7-4.01-4.89-4.02-6.75-0.01-1.51 0.65-4.1 1.47-5.75 0.82-1.65 8.59-10.06 17.27-18.69 11.31-11.24 16.52-17.19 18.41-21 1.44-2.92 3.23-6.66 3.98-8.31 1.05-2.31 1.48-12.55 1.88-44.5 0.28-22.83 0.85-42.06 1.26-42.75 0.41-0.69 2.21-2.15 4-3.25 1.79-1.09 4.26-1.99 5.5-2zm-215.81 62c0 0.83 0.35 1.16 0.78 0.75 0.43-0.41 0.43-1.09 0-1.5-0.43-0.41-0.78-0.08-0.78 0.75zm146.07 11.42c-1.45 1.5-2.36 3.68-2.4 5.75-0.04 1.83 0.71 4.57 1.66 6.08 0.95 1.51 2.86 3.2 4.23 3.75 1.38 0.55 3.74 0.99 5.25 0.97 1.51-0.02 3.88-0.97 5.25-2.12 2.03-1.69 2.5-2.98 2.5-6.88 0-3.76-0.54-5.37-2.5-7.41-1.99-2.08-3.43-2.61-7.08-2.59-3.51 0.02-5.13 0.59-6.91 2.45z"/>
</svg>
